<svg width="25" height="24" viewBox="0 0 25 24" fill="none" xmlns="http://www.w3.org/2000/svg">
<g clip-path="url(#clip0_1604_5196)">
<path d="M18.5 24H6.5C3.191 24 0.5 21.309 0.5 18C0.5 15.243 2.743 13 5.5 13C6.053 13 6.5 13.447 6.5 14C6.5 14.553 6.053 15 5.5 15C3.846 15 2.5 16.346 2.5 18C2.5 20.206 4.294 22 6.5 22H18.5C20.706 22 22.5 20.206 22.5 18C22.5 16.346 21.154 15 19.5 15C18.947 15 18.5 14.553 18.5 14C18.5 13.447 18.947 13 19.5 13C22.257 13 24.5 15.243 24.5 18C24.5 21.309 21.809 24 18.5 24Z" fill="black"/>
<path d="M14 8.00042C13.991 8.00042 13.981 8.00042 13.973 8.00042C13.604 7.99042 13.271 7.77742 13.106 7.44842L11 3.23642L9.895 5.44742C9.725 5.78642 9.379 6.00042 9 6.00042H6.5C5.947 6.00042 5.5 5.55242 5.5 5.00042C5.5 4.44842 5.947 4.00042 6.5 4.00042H8.382L10.106 0.553422C10.446 -0.124578 11.555 -0.124578 11.895 0.553422L14.059 4.88242L15.132 3.00542C15.31 2.69242 15.642 2.50042 16 2.50042H18.5C19.053 2.50042 19.5 2.94842 19.5 3.50042C19.5 4.05242 19.053 4.50042 18.5 4.50042H16.58L14.868 7.49642C14.689 7.80842 14.358 8.00042 14 8.00042Z" fill="black"/>
<path d="M16.5 10H8.5C6.294 10 4.5 11.794 4.5 14C4.5 16.206 6.294 18 8.5 18H16.5C18.706 18 20.5 16.206 20.5 14C20.5 11.794 18.706 10 16.5 10ZM9 15.5C8.172 15.5 7.5 14.828 7.5 14C7.5 13.172 8.172 12.5 9 12.5C9.828 12.5 10.5 13.172 10.5 14C10.5 14.828 9.828 15.5 9 15.5ZM16 15.5C15.172 15.5 14.5 14.828 14.5 14C14.5 13.172 15.172 12.5 16 12.5C16.828 12.5 17.5 13.172 17.5 14C17.5 14.828 16.828 15.5 16 15.5Z" fill="black"/>
</g>
<defs>
<clipPath id="clip0_1604_5196">
<rect width="24" height="24" fill="white" transform="translate(0.5)"/>
</clipPath>
</defs>
</svg>
